<svg width="263" height="274" viewBox="0 0 263 274" fill="none" xmlns="http://www.w3.org/2000/svg">
<path d="M104.37 136.04C104.553 135.996 104.737 135.953 105.058 135.995C105.889 136.278 106.375 136.135 106.518 135.301C106.675 135.27 106.765 135.255 106.948 135.29C107.46 135.068 107.88 134.796 108.365 134.504C108.518 134.465 108.606 134.445 108.786 134.477C109.677 134.13 110.496 133.766 111.265 133.316C111.61 133.115 111.852 132.74 112.199 132.392C112.43 132.231 112.604 132.121 112.875 132.036C113.205 131.951 113.473 131.883 113.667 131.725C116.367 129.517 119.08 127.37 121.306 124.6C123.63 121.709 125.617 118.623 127.071 115.28C128.27 112.526 128.826 109.49 129.641 106.571C130.189 104.607 130.742 102.641 131.199 100.654C131.547 99.1439 131.743 97.5989 132.012 96.0702C132.103 95.5551 132.142 95.0153 132.336 94.5402C132.447 94.2679 132.796 94.0161 133.089 93.9298C133.216 93.8923 133.58 94.2631 133.651 94.5033C133.857 95.2017 133.97 95.9279 134.12 96.643C134.437 98.1488 134.718 99.6635 135.083 101.158C135.516 102.934 136.06 104.682 136.484 106.46C136.882 108.127 137.006 109.881 137.576 111.481C138.377 113.731 139.43 115.898 140.464 118.058C141.997 121.262 144.053 124.158 146.584 126.606C148.938 128.882 151.588 130.862 154.195 132.86C155.16 133.599 156.351 134.063 157.477 134.568C158.871 135.193 160.284 135.786 161.726 136.289C163.278 136.83 164.862 137.295 166.453 137.712C167.911 138.094 169.406 138.337 170.87 138.698C172.577 139.117 174.256 139.656 175.97 140.037C177.814 140.446 179.686 140.731 181.988 141.151C181.467 141.565 181.211 141.922 180.889 142C178.559 142.557 176.216 143.058 173.877 143.577C171.478 144.11 169.099 144.772 166.676 145.142C164.024 145.547 161.617 146.55 159.148 147.503C155.758 148.812 152.831 150.824 150.022 153.019C147.206 155.219 144.814 157.861 142.822 160.841C142.475 161.36 142.265 161.971 141.898 162.553C141.093 163.617 140.311 164.627 139.701 165.732C139.335 166.395 139.238 167.207 139.02 168.018C139.081 168.172 139.143 168.26 139.205 168.347C139.152 168.537 139.1 168.727 139.002 168.961C138.912 169.016 138.867 169.027 138.756 168.99C137.746 169.083 138.032 169.645 138.264 170.289C138.303 170.512 138.341 170.635 138.379 170.757C138.379 170.757 138.313 170.721 138.185 170.703C137.076 171.064 137.17 171.785 137.461 172.667C137.511 172.884 137.557 173.002 137.604 173.12C137.604 173.12 137.525 173.225 137.395 173.291C136.35 173.972 136.31 174.8 136.691 175.835C136.735 176.144 136.776 176.345 136.817 176.547C136.817 176.547 136.742 176.652 136.614 176.719C136.272 177.527 136.06 178.268 135.849 179.093C135.833 179.52 135.814 179.861 135.71 180.225C134.647 180.948 134.795 181.88 135.098 182.942C135.07 183.238 135.04 183.434 134.925 183.656C133.844 184.419 134.055 185.403 134.286 186.462C134.276 186.677 134.266 186.821 134.179 187.038C133.194 187.832 133.071 188.703 133.603 189.7C133.59 190.069 133.577 190.438 133.45 190.891C133.185 190.971 133.035 190.966 132.857 190.864C132.822 190.495 132.815 190.223 132.879 189.892C133.159 189.003 132.901 188.404 132.083 188.082C132.041 187.889 131.999 187.695 131.981 187.405C132.022 187.184 132.039 187.057 132.111 186.825C132.22 185.838 132.461 184.891 131.33 184.318C131.289 183.93 131.269 183.646 131.318 183.295C131.534 182.367 131.511 181.582 130.504 181.233C130.453 180.879 130.402 180.525 130.454 180.009C130.816 178.811 130.714 177.886 129.748 177.135C129.718 176.832 129.702 176.611 129.747 176.286C129.894 175.282 130.054 174.355 128.941 173.787C128.903 173.488 128.89 173.288 128.947 173.02C129.105 172.177 129.285 171.354 128.125 171.222C128.079 171.035 128.034 170.848 128.087 170.52C128.339 169.662 128.405 168.991 127.384 168.789C127.354 168.586 127.343 168.47 127.394 168.285C127.461 168.043 127.531 167.838 127.464 167.701C126.655 166.061 125.839 164.424 124.98 162.81C124.903 162.666 124.514 162.69 124.241 162.585C124.213 162.534 124.175 162.424 124.223 162.331C124.11 161.287 123.746 160.499 122.66 160.215C122.628 160.166 122.584 160.058 122.633 159.964C122.654 159.661 122.702 159.385 122.586 159.253C120.398 156.752 118.284 154.159 115.428 152.367C114.43 151.741 113.87 150.349 112.353 150.53C112.295 150.454 112.254 150.419 112.195 150.289C110.874 149.581 109.564 148.975 108.26 148.354C108.265 148.338 108.245 148.364 108.241 148.267C107.864 148.023 107.49 147.875 107.048 147.712C106.891 147.672 106.801 147.647 106.691 147.523C106.202 147.262 105.736 147.1 105.203 146.927C105.05 146.898 104.962 146.88 104.866 146.764C104.331 146.505 103.805 146.344 103.173 146.176C102.865 146.213 102.665 146.256 102.464 146.298C102.281 146.245 102.097 146.191 101.875 146.105C101.82 146.027 101.802 145.983 101.837 145.877C101.299 145.672 100.708 145.529 100.018 145.383C99.7215 145.349 99.5246 145.317 99.3244 145.193C98.497 144.922 97.6729 144.745 96.7964 144.563C96.6739 144.558 96.6038 144.557 96.4392 144.497C95.2783 144.223 94.2121 144.008 93.0732 143.785C92.8548 143.763 92.7091 143.751 92.4828 143.664C91.5103 143.389 90.6185 143.187 89.6691 142.98C89.535 142.968 89.4586 142.96 89.2963 142.887C88.1891 142.646 87.1679 142.468 86.1468 142.29C85.6858 142.262 85.2248 142.233 84.6647 142.074C84.2748 141.581 83.984 141.219 83.6932 140.857C84.1746 140.79 84.6559 140.724 85.3132 140.678C85.6215 140.706 85.7539 140.713 85.9574 140.789C86.932 140.946 87.8734 141.132 88.2942 139.978C88.4009 139.946 88.5075 139.915 88.7662 139.905C89.049 139.931 89.1797 139.936 89.3819 140.011C90.4062 139.785 91.3592 139.49 92.3644 139.192C92.4865 139.183 92.556 139.176 92.7296 139.224C93.7475 139.366 94.7255 139.619 95.1476 138.406C95.3319 138.368 95.5162 138.33 95.8661 138.315C96.1642 138.341 96.2967 138.343 96.4913 138.415C97.3647 138.659 98.0029 138.481 98.3114 137.626C98.5791 137.592 98.8468 137.559 99.2887 137.541C99.5916 137.56 99.7204 137.563 99.9188 137.634C100.819 137.799 101.658 137.915 101.959 136.824C102.079 136.795 102.198 136.767 102.479 136.808C103.448 137.074 104.086 136.923 104.37 136.04Z" fill="white"/>
<path d="M141.046 217.182C138.49 219.269 135.667 220.488 132.44 220.306C127.711 220.04 123.236 217.115 121.559 212.114C119.369 205.586 122.606 199.572 128.277 197.084C132.027 195.439 135.718 195.893 139.277 198.041C141.864 199.603 143.48 201.854 144.393 204.589C145.213 207.046 145.229 209.689 144.274 212.078C143.55 213.892 142.195 215.454 141.046 217.182Z" fill="white"/>
<path d="M75.8283 145.94C74.6855 148.034 73.4274 149.88 71.4504 151.177C67.2187 153.953 62.5465 154.092 58.2797 151.394C53.2462 148.21 51.835 143.317 53.0764 137.967C53.8842 134.486 56.2134 131.831 59.5943 130.429C61.2159 129.756 63.0231 129.105 64.7283 129.148C68.5293 129.245 71.8356 130.752 74.2378 133.862C76.4438 136.719 77.0485 139.993 76.6107 143.491C76.5101 144.295 76.1187 145.062 75.8283 145.94Z" fill="white"/>
<path d="M90.2306 194.411C84.6957 194.456 80.668 192.019 78.4275 187.162C75.7169 181.286 78.2842 174.256 84.3844 171.409C87.3262 170.036 90.3344 169.839 93.2979 170.865C96.6721 172.032 99.1833 174.302 100.545 177.736C101.86 181.053 101.823 184.38 100.29 187.511C98.7987 190.559 96.4965 192.918 92.9735 193.708C92.0892 193.906 91.2196 194.17 90.2306 194.411Z" fill="white"/>
<path d="M211.743 138.34C211.787 138.522 211.83 138.703 211.837 139.085C211.753 140.804 211.707 142.321 211.581 143.861C211.038 144.303 210.447 144.685 211.017 145.52C210.93 145.912 210.853 146.212 210.738 146.436C210.515 146.706 210.328 147.051 210.125 147.45C210.107 147.504 210.049 147.602 209.954 147.596C209.492 148.13 209.125 148.669 208.712 149.252C208.604 149.353 208.546 149.414 208.398 149.458C207.559 150.134 206.812 150.829 206.055 151.509C206.045 151.494 206.056 151.529 205.95 151.512C205.38 151.759 204.917 152.023 204.371 152.325C203.988 152.41 203.688 152.456 203.318 152.433C202.254 152.423 201.171 152.199 200.486 153.236C200.21 153.253 199.933 153.271 199.531 153.161C198.672 152.21 197.784 152.147 196.71 152.498C196.415 152.45 196.221 152.407 196.017 152.279C195.093 151.748 194.176 151.303 193.207 150.839C193.155 150.82 193.061 150.759 193.065 150.661C192.79 150.394 192.511 150.223 192.219 150.041C192.207 150.028 192.179 150.007 192.209 149.912C191.971 149.632 191.703 149.447 191.424 149.249C191.414 149.235 191.389 149.21 191.421 149.117C191.195 148.813 190.936 148.601 190.644 148.343C190.611 148.296 190.566 148.19 190.607 148.096C190.463 147.9 190.278 147.797 190.027 147.619C189.75 147.07 189.482 146.613 189.339 146.12C188.946 144.758 188.479 143.399 188.271 142.005C187.903 139.539 188.686 137.242 189.91 135.167C191.658 132.202 194.268 130.311 197.716 129.719C200.966 129.161 204.041 129.593 206.844 131.535C207.056 131.778 207.268 131.919 207.532 132.087C207.584 132.113 207.675 132.186 207.666 132.283C207.93 132.568 208.202 132.756 208.478 132.953C208.482 132.962 208.5 132.969 208.48 133.065C208.725 133.365 208.989 133.57 209.288 133.819C209.323 133.864 209.372 133.967 209.33 134.058C209.528 134.297 209.767 134.446 209.995 134.604C209.983 134.614 210.011 134.602 209.998 134.704C210.104 135.298 209.703 136.121 210.82 136.043C210.916 136.028 210.946 135.995 210.976 135.961C210.997 136.07 211.018 136.179 211.029 136.447C211.029 136.736 211.04 136.866 210.979 137.041C211.186 137.504 211.464 137.922 211.743 138.34Z" fill="white"/>
<path d="M168.792 172.214C168.792 172.214 168.746 172.2 168.766 172.214C168.787 172.227 168.791 172.232 168.839 172.274C168.971 172.319 169.057 172.313 169.184 172.369C169.461 172.206 169.696 171.971 170 171.71C170.168 171.653 170.264 171.624 170.46 171.648C171.351 171.901 171.813 171.553 172.039 170.812C172.329 170.768 172.619 170.724 173.061 170.779C174.841 170.846 176.469 170.815 178.196 170.787C178.416 170.751 178.536 170.711 178.657 170.671C178.657 170.671 178.615 170.717 178.597 170.838C179.192 171.165 179.804 171.37 180.503 171.602C181.232 171.995 181.874 172.361 182.476 172.812C182.608 172.977 182.78 173.057 183.011 173.175C183.109 173.242 183.147 173.27 183.177 173.392C183.433 173.675 183.697 173.864 183.967 174.063C183.974 174.072 183.993 174.085 183.979 174.178C184.221 174.475 184.478 174.679 184.77 174.938C184.805 174.992 184.868 175.106 184.827 175.196C185.284 175.956 185.782 176.627 186.274 177.302C186.267 177.307 186.282 177.301 186.264 177.413C186.371 178.414 186.126 179.454 187.23 179.945C187.27 180.23 187.31 180.516 187.31 180.993C187.313 182.187 187.355 183.19 187.397 184.192C187.374 184.298 187.35 184.404 187.209 184.594C186.603 185.101 186.01 185.486 186.507 186.366C186.532 186.585 186.569 186.706 186.605 186.826C186.569 186.932 186.533 187.038 186.437 187.198C186.34 187.279 186.304 187.305 186.224 187.269C185.475 187.467 185.437 187.57 185.838 188.142C185.789 188.323 185.739 188.504 185.639 188.72C185.588 188.755 185.461 188.785 185.393 188.751C185.155 188.981 184.986 189.244 184.804 189.522C184.792 189.537 184.77 189.567 184.679 189.545C183.656 190.32 182.711 191.104 181.803 191.929C181.661 192.057 181.687 192.369 181.64 192.646C181.645 192.696 181.741 192.728 181.741 192.728C181.558 192.774 181.375 192.819 181.059 192.789C180.405 192.983 179.884 193.254 179.286 193.545C179.104 193.578 178.998 193.591 178.818 193.536C176.635 193.789 174.527 194.249 172.418 193.448C172.291 193.4 172.094 193.534 171.841 193.581C171.654 193.631 171.556 193.684 171.458 193.736C171.329 193.688 171.199 193.64 171.003 193.446C170.769 192.75 170.532 192.369 169.925 192.882C169.739 192.848 169.554 192.814 169.327 192.745C169.286 192.71 169.29 192.594 169.321 192.517C169.225 192.242 169.121 192.022 168.966 191.848C167.599 190.325 166.146 188.872 164.886 187.267C164.302 186.524 164.088 185.491 163.703 184.473C163.701 183.174 163.703 181.991 163.763 180.716C164.008 179.693 164.195 178.763 164.381 177.834C164.387 177.721 164.393 177.609 164.526 177.426C164.841 177 165.03 176.644 165.251 176.208C165.575 175.701 165.868 175.274 166.255 174.858C166.459 174.692 166.568 174.514 166.719 174.282C166.82 174.16 166.881 174.092 167.034 174.048C167.244 173.899 167.36 173.724 167.537 173.486C167.996 173.019 168.394 172.617 168.792 172.214Z" fill="white"/>
<path d="M103.355 225.859C101.482 227.589 99.3776 228.592 96.8927 228.384C93.8064 228.126 91.4206 226.574 90.1014 223.778C87.9334 219.183 89.778 215.354 93.4458 212.918C95.7083 211.416 98.9912 211.657 101.388 213.041C104.312 214.73 105.546 217.285 105.604 220.441C105.642 222.447 104.713 224.238 103.355 225.859Z" fill="white"/>
<path d="M175.366 63.6833C174.182 65.597 172.65 67.1301 170.591 67.6402C169.004 68.0332 167.148 68.0749 165.581 67.6502C162.537 66.8257 160.795 64.4747 159.977 61.4913C159.281 58.953 160.187 56.7125 161.698 54.7627C165.399 49.9864 172.365 50.8604 175.196 55.8392C176.419 57.9889 176.947 60.4142 175.599 62.8337C175.476 63.0554 175.467 63.3408 175.366 63.6833Z" fill="white"/>
<path d="M53.7712 96.3354C53.8751 96.3717 53.9791 96.408 54.1657 96.5709C55.7548 97.9972 57.2602 99.298 58.7734 100.59C58.8103 100.621 58.9333 100.552 59.0568 100.584C59.1329 100.816 59.1683 100.994 59.142 101.258C59.1423 102.209 59.202 103.075 59.2669 103.94C59.4111 105.861 58.9304 107.538 57.714 109.105C56.4328 110.755 54.5937 111.344 52.7987 112.167C52.6774 112.174 52.6081 112.177 52.4514 112.119C52.0353 112.099 51.7066 112.14 51.2677 112.185C50.7917 112.165 50.4257 112.142 50.0335 112.036C49.5132 111.707 49.0162 111.466 48.5258 111.212C48.2088 111.048 47.8569 110.915 47.5976 110.682C46.5758 109.766 45.6072 108.882 44.9662 107.547C43.9403 105.409 44.0133 103.231 44.7597 101.267C45.4192 99.5316 46.73 97.9453 48.7596 97.3141C48.9912 97.2421 49.0994 96.7732 49.2648 96.4884C49.3807 96.4611 49.4966 96.4337 49.7684 96.502C51.0215 96.5576 52.1187 96.5174 53.3152 96.4747C53.5333 96.4265 53.6523 96.3809 53.7712 96.3354Z" fill="white"/>
<path d="M141.992 162.538C142.265 161.97 142.475 161.359 142.822 160.84C144.814 157.861 147.207 155.218 150.022 153.018C152.832 150.823 155.759 148.811 159.148 147.502C161.617 146.549 164.025 145.546 166.676 145.141C169.099 144.771 171.478 144.109 173.877 143.576C176.216 143.057 178.559 142.556 180.889 141.999C181.212 141.922 181.467 141.564 181.988 141.151C179.686 140.73 177.814 140.445 175.97 140.036C174.256 139.656 172.577 139.117 170.871 138.697C169.406 138.336 167.912 138.093 166.453 137.711C164.862 137.294 163.279 136.83 161.726 136.288C160.285 135.785 158.871 135.192 157.477 134.567C156.351 134.063 155.16 133.598 154.195 132.859C151.589 130.862 148.938 128.881 146.584 126.605C144.053 124.157 141.997 121.261 140.464 118.057C139.431 115.897 138.377 113.73 137.576 111.48C137.006 109.88 136.882 108.126 136.484 106.459C136.06 104.682 135.516 102.933 135.083 101.157C134.718 99.6627 134.438 98.148 134.12 96.6422C133.97 95.9272 133.857 95.2009 133.651 94.5025C133.58 94.2624 133.216 93.8916 133.089 93.929C132.796 94.0153 132.447 94.2671 132.336 94.5394C132.142 95.0145 132.103 95.5544 132.012 96.0694C131.743 97.5981 131.547 99.1431 131.199 100.654C130.743 102.64 130.19 104.606 129.641 106.57C128.826 109.489 128.27 112.525 127.071 115.279C125.617 118.622 123.631 121.708 121.306 124.599C119.08 127.37 116.367 129.517 113.667 131.724C113.473 131.882 113.205 131.95 112.857 131.961C112.74 131.812 112.738 131.761 112.735 131.71C113.965 130.717 115.259 129.792 116.413 128.717C119.158 126.161 121.887 123.565 123.658 120.188C125.089 117.461 126.515 114.724 127.759 111.909C128.309 110.664 128.377 109.21 128.713 107.863C129.158 106.074 129.671 104.301 130.118 102.512C130.442 101.214 130.729 99.9068 130.99 98.5952C131.396 96.5547 131.733 94.5 132.167 92.4658C132.316 91.7716 132.668 91.1209 132.975 90.3257C133.282 90.5625 133.491 90.639 133.521 90.7604C133.868 92.1385 134.18 93.5254 134.516 94.9061C134.934 96.6184 135.366 98.3272 135.792 100.037C135.866 100.335 135.956 100.629 136.016 100.929C136.594 103.814 136.931 106.774 137.802 109.568C138.885 113.046 140.209 116.44 142.116 119.632C144.511 123.638 147.654 126.91 151.135 129.873C152.816 131.304 154.828 132.389 156.802 133.417C158.959 134.541 161.221 135.474 163.483 136.377C164.554 136.806 165.722 137.011 166.861 137.249C168.513 137.594 170.181 137.861 171.837 138.189C173.238 138.468 174.632 138.787 176.029 139.088C178.343 139.585 180.664 140.055 182.965 140.608C183.341 140.698 183.629 141.154 183.957 141.442C183.599 141.737 183.278 142.218 182.878 142.296C180.882 142.684 178.855 142.912 176.859 143.299C174.448 143.767 172.049 144.307 169.659 144.875C167.608 145.361 165.506 145.749 163.553 146.506C160.814 147.568 158.162 148.871 155.532 150.19C154.091 150.912 152.771 151.877 151.238 152.784C150.914 153.031 150.75 153.226 150.586 153.421C150.586 153.421 150.479 153.48 150.359 153.538C150.085 153.781 149.932 153.964 149.779 154.148C149.738 154.172 149.698 154.195 149.519 154.272C149.175 154.554 148.969 154.782 148.763 155.01C148.763 155.01 148.725 155.042 148.627 155.069C148.341 155.329 148.153 155.562 147.965 155.795C147.965 155.795 147.929 155.83 147.832 155.86C147.55 156.128 147.365 156.365 147.179 156.602C147.179 156.602 147.15 156.632 147.052 156.657C146.769 156.928 146.583 157.174 146.397 157.42C146.397 157.42 146.379 157.445 146.29 157.477C146.013 157.765 145.824 158.021 145.636 158.277C145.636 158.277 145.568 158.377 145.48 158.459C145.278 158.677 145.164 158.814 145.051 158.951C144.268 160.037 143.485 161.123 142.556 162.288C142.276 162.518 142.142 162.67 142.005 162.751C141.998 162.633 141.995 162.586 141.992 162.538ZM132.793 92.6418C132.84 92.9594 132.887 93.277 132.933 93.5946C133.039 93.5786 133.145 93.5625 133.251 93.5464C133.251 93.0215 133.251 92.4966 133.251 91.9717C133.185 91.955 133.118 91.9383 133.052 91.9217C132.968 92.0853 132.885 92.2489 132.793 92.6418Z" fill="white"/>
<path d="M138.53 240.127C138.717 244.436 136.354 246.416 132.882 247.246C130.861 247.729 127.932 246.302 126.613 244.214C125.176 241.94 125.114 239.521 126.579 237.308C127.932 235.262 129.906 233.89 132.52 234.138C134.989 234.372 138.231 236.087 138.53 240.127Z" fill="white"/>
<path d="M231.503 146.772C229.816 146.304 228.452 145.54 227.409 144.218C224.594 140.65 226.305 136.041 230.054 134.219C233.052 132.763 237.184 134.688 238.332 137.243C239.826 140.567 239.007 144.77 234.903 146.251C233.875 146.621 232.712 146.618 231.503 146.772Z" fill="white"/>
<path d="M197.526 67.1592C197.568 66.9752 197.61 66.7913 197.699 66.5671C197.746 66.527 197.87 66.4848 197.934 66.5256C198.176 66.3063 198.354 66.0463 198.544 65.7776C198.556 65.7689 198.574 65.7449 198.666 65.7665C198.943 65.5226 199.127 65.2572 199.326 64.9817C199.341 64.9716 199.365 64.9453 199.445 64.9689C199.728 64.7642 199.931 64.5359 200.138 64.2423C200.143 64.177 200.02 64.1325 200.02 64.1325C200.124 64.1039 200.229 64.0752 200.482 64.0583C200.758 64.0658 200.887 64.0615 201.091 64.1207C202.61 64.1314 204.055 64.0785 205.571 64.0296C205.686 64.0181 205.731 64.0027 205.775 63.9873C205.775 63.9873 205.874 64.0576 205.952 64.1663C206.533 64.5656 207.037 64.8562 207.558 65.2391C208.178 66.1338 208.781 66.9363 209.383 67.7388C209.383 67.7388 209.449 67.8458 209.432 67.9849C209.422 68.3363 209.429 68.5486 209.365 68.8415C209.33 69.6925 209.366 70.4628 209.392 71.2986C209.435 71.4609 209.487 71.5578 209.539 71.6546C209.493 71.8492 209.448 72.0438 209.33 72.3302C209.141 72.5137 209.024 72.6056 208.816 72.6999C208.475 73.1717 208.224 73.6409 207.926 74.1576C207.815 74.2708 207.752 74.3366 207.599 74.382C207.395 74.5381 207.28 74.7146 207.105 74.9229C207.005 74.9769 206.965 74.999 206.835 74.9787C206.393 75.2088 206.041 75.4813 205.628 75.7592C205.49 75.7743 205.412 75.7885 205.214 75.7546C203.825 75.7473 202.555 75.7926 201.197 75.8251C200.997 75.7809 200.884 75.7495 200.762 75.6321C200.368 75.3748 199.983 75.2035 199.537 74.9964C199.438 74.9339 199.4 74.9071 199.366 74.7872C199.108 74.5049 198.846 74.3159 198.577 74.1172C198.57 74.1076 198.551 74.094 198.565 74.0047C198.425 73.7799 198.271 73.6444 198.063 73.4743C197.943 73.387 197.886 73.3254 197.852 73.1463C197.535 72.3041 197.204 71.5705 196.873 70.8369C196.858 70.2306 196.842 69.6244 196.937 68.9214C197.207 68.2695 197.367 67.7144 197.526 67.1592Z" fill="white"/>
<path d="M56.1475 72.444C56.1353 72.3331 56.1231 72.2223 56.1346 71.9368C56.1459 71.4644 56.1335 71.1667 56.198 70.8021C56.2307 70.0781 56.1863 69.4209 56.1405 68.6646C56.206 68.1803 56.273 67.7952 56.4351 67.4019C56.6133 67.2 56.6965 67.0063 56.8383 66.7444C57.3462 66.2292 57.7955 65.7822 58.3278 65.3077C58.7034 64.9527 58.9961 64.6252 59.3759 64.2592C59.7105 64.1704 59.958 64.12 60.3105 64.1287C61.6173 64.1321 62.819 64.0763 64.1269 64.033C64.4359 64.0165 64.6387 63.9875 64.8415 63.9584C64.9475 63.9906 65.0535 64.0227 65.2209 64.136C65.3323 64.2982 65.3824 64.3791 65.4097 64.5571C65.5845 64.7403 65.7821 64.8266 66.0314 64.9355C66.0831 64.9582 66.1759 65.0229 66.1741 65.1176C66.4417 65.4091 66.711 65.6058 67.0152 65.8511C67.05 65.8996 67.1005 66.0078 67.059 66.0991C67.1914 66.3105 67.3653 66.4307 67.6072 66.6096C67.7683 67.0156 67.8614 67.3628 67.8829 67.7717C68.1525 69.2505 68.2438 70.6658 67.7996 72.0822C67.7811 72.1412 67.8697 72.2338 67.8844 72.402C66.8294 74.7536 65.0098 75.9042 62.5897 76.0197C61.5692 76.0684 60.5329 75.7867 59.4981 75.5591C59.2138 75.3056 58.9352 75.148 58.6339 74.9785C58.6112 74.9665 58.5684 74.9384 58.603 74.8471C58.1254 74.3598 57.6133 73.9638 57.0739 73.4923C57.0115 73.3156 56.9763 73.2145 56.9948 73.0236C56.8692 72.8329 56.6899 72.732 56.4582 72.5782C56.3198 72.4983 56.2336 72.4712 56.1475 72.444Z" fill="white"/>
<path d="M175.584 216.171C176.915 218.27 176.731 220.567 176.231 222.615C175.671 224.907 174.101 226.8 171.768 227.725C170.707 228.146 169.552 228.443 168.418 228.542C164.767 228.863 162.228 226.911 160.621 223.948C159.616 222.098 159.347 220.052 160.03 217.689C161.08 214.057 165.541 210.976 169.533 211.744C171.659 212.153 173.454 213.276 174.807 215.017C175.073 215.358 175.308 215.723 175.584 216.171ZM170.29 212.795C169.985 212.767 169.677 212.755 169.375 212.708C167.209 212.37 165.083 212.418 163.466 214.117C162.424 215.212 161.128 216.419 160.818 217.775C160.361 219.778 160.258 221.953 161.417 223.99C162.655 226.166 165.732 228.246 168.209 227.946C169.484 227.792 170.709 227.156 171.935 226.684C174.719 225.613 175.473 223.112 175.953 220.569C176.108 219.744 175.487 218.794 175.318 217.884C174.809 215.143 172.963 213.702 170.29 212.795Z" fill="white"/>
<path d="M207.145 167.903C209.284 166.368 211.689 166.211 213.971 166.755C216.156 167.275 217.976 168.614 219.134 170.755C220.352 173.007 220.556 175.314 219.783 177.657C219.003 180.02 217.398 181.766 215.021 182.659C214.111 183.002 213.137 183.385 212.191 183.388C208.759 183.399 206.19 181.838 204.466 178.84C202.313 175.095 203.71 170.128 207.145 167.903ZM219.499 175.295C219.755 173.385 219.115 171.728 217.9 170.326C216.85 169.113 215.771 168.02 214.004 167.597C212.96 167.348 211.91 166.73 210.909 167.133C209.48 167.707 207.944 168.004 206.746 169.257C205.274 170.797 204.137 172.35 204.136 174.552C204.136 175.766 204.325 176.871 204.826 178.05C205.767 180.266 207.435 181.755 209.522 182.215C211.333 182.614 213.354 182.817 215.315 181.703C217.825 180.278 219.182 178.328 219.499 175.295Z" fill="white"/>
<path d="M201.155 204.076C205.58 202.841 210.564 207.25 209.47 211.976C208.959 214.183 207.679 216.01 205.351 216.739C204.301 217.067 203.193 217.39 202.111 217.394C199.957 217.4 197.267 215.167 196.651 213.103C196.442 212.406 196.082 211.735 195.986 211.026C195.665 208.642 198.096 204.884 200.496 204.445C200.697 204.409 200.873 204.232 201.155 204.076ZM201.984 216.403C202.728 216.394 203.473 216.406 204.217 216.373C205.706 216.306 206.819 215.474 207.619 214.346C208.661 212.879 208.925 211.206 208.542 209.395C208.16 207.59 207.403 206.305 205.603 205.438C203.746 204.544 200.158 204.723 198.615 206.213C197.072 207.703 196.871 209.546 196.979 211.54C197.113 214.01 199.253 216.239 201.984 216.403Z" fill="white"/>
<path d="M132.003 46.7057C127.277 46.2084 124.548 42.4539 125.658 37.8972C126.472 34.5522 131.389 32.2073 134.544 33.5921C138.466 35.3134 140.115 40.4567 137.656 43.7671C136.294 45.6 134.445 46.6344 132.003 46.7057ZM126.838 43.1354C126.991 43.2186 127.21 43.2623 127.287 43.3909C128.486 45.3955 130.321 45.9191 132.502 45.673C133.276 45.5857 134.304 45.8136 134.785 45.3981C136.598 43.8298 138.651 42.262 138.073 39.3722C137.91 38.5597 137.716 37.6804 137.268 37.013C136.261 35.5165 135.195 33.9321 133.018 34.1644C131.711 34.304 130.358 34.3844 129.128 34.7967C127.231 35.4325 126.651 37.283 126.024 38.9408C125.802 39.5279 126.005 40.3123 126.132 40.9844C126.259 41.6549 126.532 42.2976 126.838 43.1354Z" fill="white"/>
<path d="M25.2723 138.085C25.8682 137.169 26.3421 136.269 27.0161 135.558C28.6525 133.833 30.7293 133.166 33.0708 133.519C35.3286 133.859 37.5735 136.222 38.1663 138.5C38.9874 141.655 37.943 144.07 35.4437 145.958C33.3149 147.565 30.3761 147.401 28.1497 145.943C25.2148 144.02 24.8056 141.297 25.2723 138.085ZM26.023 141.897C26.2717 142.479 26.4527 143.103 26.7813 143.635C27.9997 145.61 29.8184 146.252 32.091 146.115C34.5035 145.97 36.977 144.454 37.5909 142.148C38.6998 137.981 35.6782 134.013 31.2655 134.332C29.4028 134.467 27.8811 135.127 26.924 136.788C26.5323 137.468 26.0746 138.172 25.9354 138.919C25.767 139.822 25.9046 140.782 26.023 141.897Z" fill="white"/>
<path d="M49.2594 96.4166C49.0996 96.7663 48.9915 97.2351 48.7599 97.3072C46.7303 97.9384 45.4195 99.5247 44.76 101.26C44.0136 103.225 43.9406 105.402 44.9665 107.54C45.6075 108.875 46.5761 109.759 47.5979 110.676C47.8572 110.908 48.2091 111.041 48.5261 111.205C49.0165 111.459 49.5134 111.7 50.0147 112.099C50.0005 112.294 49.9793 112.337 49.958 112.38C49.7423 112.357 49.5265 112.334 49.1865 112.23C48.7025 111.988 48.3428 111.827 47.9831 111.667C47.9831 111.667 47.974 111.701 47.9196 111.616C47.1458 111.031 46.4264 110.531 45.7071 110.03C45.7071 110.03 45.6851 110.018 45.674 109.916C45.4108 109.414 45.1299 109.028 44.9126 108.609C44.4054 107.631 43.9288 106.637 43.4398 105.649C43.4208 104.883 43.4018 104.117 43.4533 103.196C43.7218 102.326 43.9197 101.613 44.1176 100.899C44.1459 100.818 44.1669 100.735 44.2633 100.549C44.5263 100.112 44.7067 99.7776 44.8871 99.443C44.8871 99.443 44.8906 99.4202 44.9783 99.3891C45.2515 99.0935 45.4371 98.8292 45.6227 98.5648C45.6227 98.5648 45.6891 98.4905 45.7758 98.4194C45.9897 98.2066 46.1168 98.0649 46.2439 97.9232C46.2439 97.9232 46.3484 97.885 46.4855 97.8443C47.3713 97.3094 48.12 96.8151 48.8686 96.3209C48.997 96.3312 49.1254 96.3415 49.2594 96.4166Z" fill="white"/>
<path d="M112.378 150.567C113.871 150.354 114.431 151.746 115.428 152.372C118.285 154.164 120.398 156.757 122.587 159.257C122.703 159.39 122.654 159.666 122.563 159.934C122.163 159.755 121.884 159.517 121.604 159.279C121.551 159.199 121.498 159.119 121.364 158.927C121.137 158.702 120.991 158.587 120.844 158.473C120.844 158.473 120.801 158.372 120.762 158.245C120.48 157.901 120.236 157.685 119.991 157.469C119.991 157.469 119.971 157.46 119.96 157.367C119.7 157.075 119.452 156.875 119.204 156.676C119.204 156.676 119.183 156.667 119.169 156.574C118.904 156.285 118.652 156.088 118.401 155.892C118.401 155.892 118.382 155.887 118.373 155.794C118.113 155.502 117.861 155.302 117.61 155.102C117.61 155.102 117.591 155.097 117.582 155.004C117.32 154.712 117.067 154.513 116.814 154.314C116.814 154.314 116.796 154.31 116.784 154.217C116.505 153.931 116.238 153.738 115.972 153.546C115.972 153.546 115.886 153.482 115.806 153.396C115.573 153.194 115.42 153.077 115.267 152.96C115.267 152.96 115.212 152.873 115.132 152.765C114.302 152.163 113.552 151.669 112.801 151.176C112.801 151.176 112.729 151.113 112.652 151.032C112.51 150.823 112.444 150.695 112.378 150.567Z" fill="white"/>
<path d="M52.8503 112.165C54.5933 111.343 56.4325 110.754 57.7137 109.104C58.93 107.537 59.4107 105.86 59.2666 103.939C59.2016 103.074 59.142 102.209 59.2215 101.259C59.4161 101.179 59.469 101.185 59.522 101.191C59.522 101.191 59.5427 101.175 59.5144 101.279C59.6887 101.837 59.8913 102.293 60.094 102.748C60.096 103.723 60.098 104.699 60.0175 105.843C59.2456 107.34 58.5561 108.668 57.8666 109.996C57.8666 109.996 57.8523 110.019 57.7551 110.042C56.9579 110.597 56.258 111.131 55.558 111.665C55.558 111.665 55.5629 111.703 55.4671 111.683C55.0944 111.865 54.8176 112.066 54.5407 112.268C54.089 112.31 53.6373 112.353 53.0468 112.351C52.8888 112.259 52.8696 112.212 52.8503 112.165Z" fill="white"/>
<path d="M171.931 193.583C172.095 193.534 172.291 193.399 172.419 193.448C174.528 194.249 176.635 193.788 178.776 193.615C178.352 194.013 177.894 194.264 177.437 194.514C176.197 194.518 174.958 194.523 173.555 194.458C172.904 194.121 172.417 193.852 171.931 193.583Z" fill="white"/>
<path d="M163.707 184.586C164.089 185.487 164.303 186.521 164.886 187.263C166.147 188.868 167.6 190.322 168.966 191.845C169.122 192.018 169.226 192.238 169.226 192.497C168.519 192.192 167.941 191.827 167.363 191.463C167.363 191.463 167.281 191.39 167.203 191.303C166.985 191.098 166.843 190.981 166.702 190.864C166.702 190.864 166.647 190.769 166.594 190.649C166.302 190.312 166.063 190.094 165.825 189.876C165.825 189.876 165.807 189.867 165.805 189.769C165.516 189.234 165.229 188.797 164.942 188.36C164.942 188.36 164.927 188.373 164.933 188.28C164.743 187.988 164.545 187.79 164.348 187.592C164.307 187.372 164.266 187.153 164.202 186.764C163.975 186.224 163.77 185.853 163.565 185.483C163.54 185.283 163.515 185.083 163.528 184.761C163.614 184.622 163.661 184.604 163.707 184.586Z" fill="white"/>
<path d="M59.0168 100.528C58.9339 100.551 58.8109 100.62 58.774 100.589C57.2608 99.2968 55.7554 97.996 54.2434 96.6022C54.3603 96.4699 54.4829 96.4318 54.745 96.4757C55.6151 96.9796 56.3457 97.4014 57.0763 97.8232C57.0763 97.8232 57.0932 97.8236 57.1157 97.911C57.3891 98.1977 57.64 98.3971 57.8908 98.5964C57.8908 98.5964 57.9324 98.5651 57.9326 98.6746C58.2942 99.3654 58.6555 99.9467 59.0168 100.528Z" fill="white"/>
<path d="M124.269 162.637C124.513 162.691 124.903 162.667 124.979 162.811C125.838 164.425 126.654 166.062 127.463 167.702C127.531 167.839 127.46 168.044 127.314 168.249C126.903 167.911 126.633 167.543 126.363 167.174C126.363 167.174 126.34 167.059 126.327 166.916C126.065 166.381 125.816 165.988 125.567 165.596C125.567 165.596 125.543 165.483 125.529 165.342C125.299 164.934 125.083 164.668 124.867 164.402C124.81 164.208 124.754 164.013 124.647 163.664C124.488 163.22 124.379 162.928 124.269 162.637Z" fill="white"/>
<path d="M141.897 162.557C141.994 162.59 141.997 162.637 141.943 162.824C141.265 164.251 140.643 165.539 140.022 166.826C139.988 166.93 139.955 167.035 139.832 167.238C139.501 167.544 139.26 167.75 139.02 167.955C139.237 167.211 139.334 166.399 139.7 165.736C140.31 164.631 141.093 163.621 141.897 162.557Z" fill="white"/>
<path d="M205.501 64.0336C204.056 64.0864 202.611 64.1392 201.136 64.0514C201.555 63.6603 202.003 63.4099 202.451 63.1594C202.924 63.1531 203.396 63.1467 204.022 63.2131C204.617 63.5351 205.059 63.7843 205.501 64.0336Z" fill="white"/>
<path d="M173.059 170.52C174.722 170.517 176.344 170.57 178.032 170.705C176.47 170.817 174.842 170.849 173.15 170.788C173.063 170.656 173.04 170.616 173.059 170.52Z" fill="white"/>
<path d="M181.636 192.593C181.687 192.366 181.662 192.054 181.803 191.926C182.712 191.101 183.657 190.317 184.67 189.626C184.54 190.064 184.328 190.396 184.074 190.783C183.933 190.991 183.834 191.144 183.736 191.298C183.736 191.298 183.633 191.361 183.502 191.421C182.793 191.852 182.214 192.222 181.636 192.593Z" fill="white"/>
<path d="M67.8835 67.7768C68.1905 68.1216 68.4261 68.5281 68.7365 68.9848C68.8117 69.5705 68.8122 70.1061 68.8086 70.7563C68.5511 71.3191 68.2976 71.7671 67.9765 72.2655C67.8702 72.2389 67.7816 72.1463 67.8001 72.0873C68.2443 70.6709 68.153 69.2556 67.8835 67.7768Z" fill="white"/>
<path d="M112.141 132.444C111.852 132.74 111.609 133.114 111.265 133.316C110.496 133.766 109.677 134.13 108.826 134.402C109.529 133.74 110.286 133.205 111.042 132.669C111.042 132.669 111.146 132.647 111.285 132.627C111.663 132.553 111.902 132.499 112.141 132.444Z" fill="white"/>
<path d="M134.285 186.393C134.055 185.406 133.844 184.422 134.991 183.682C135.187 183.696 135.23 183.714 135.273 183.733C135.26 183.952 135.247 184.172 135.166 184.527C134.827 185.239 134.556 185.816 134.285 186.393Z" fill="white"/>
<path d="M133.664 189.736C133.07 188.703 133.193 187.832 134.22 187.088C134.393 187.174 134.448 187.285 134.503 187.396C134.485 187.542 134.466 187.687 134.372 187.959C134.148 188.625 133.999 189.163 133.851 189.701C133.809 189.724 133.768 189.748 133.664 189.736Z" fill="white"/>
<path d="M131.352 184.419C132.461 184.888 132.22 185.835 132.042 186.773C131.654 186.333 131.391 185.837 131.128 185.341C131.116 185.102 131.104 184.862 131.15 184.533C131.255 184.435 131.303 184.427 131.352 184.419Z" fill="white"/>
<path d="M128.967 173.882C130.054 174.353 129.894 175.281 129.682 176.232C129.293 175.789 129.031 175.295 128.769 174.802C128.752 174.579 128.736 174.357 128.772 174.027C128.872 173.908 128.919 173.895 128.967 173.882Z" fill="white"/>
<path d="M135.095 182.842C134.794 181.879 134.646 180.948 135.774 180.254C135.966 180.283 136.009 180.303 136.051 180.324C136.04 180.458 136.029 180.592 135.945 180.849C135.613 181.595 135.354 182.219 135.095 182.842Z" fill="white"/>
<path d="M203.317 152.436C202.812 152.75 202.237 152.993 201.603 153.312C201.236 153.38 200.927 153.374 200.552 153.303C201.171 152.202 202.254 152.426 203.317 152.436Z" fill="white"/>
<path d="M209.443 67.6638C208.782 66.9427 208.18 66.1402 207.59 65.2121C207.603 65.0864 207.665 65.0204 207.722 65.0637C207.89 65.1927 208.001 65.2784 208.112 65.3641C208.112 65.3641 208.189 65.4513 208.264 65.5503C208.484 65.7588 208.63 65.8681 208.776 65.9775C208.776 65.9775 208.815 66.0857 208.832 66.2277C209.055 66.6413 209.261 66.9129 209.468 67.1845C209.479 67.3171 209.49 67.4497 209.443 67.6638Z" fill="white"/>
<path d="M86.1159 142.352C87.1687 142.467 88.1899 142.645 89.2383 142.933C89.0765 143.092 88.8876 143.141 88.6986 143.19C88.5562 143.177 88.4137 143.164 88.1429 143.083C87.3966 142.852 86.7787 142.691 86.1609 142.529C86.1353 142.491 86.1098 142.452 86.1159 142.352Z" fill="white"/>
<path d="M129.516 177.416C129.539 177.298 129.584 177.285 129.696 177.245C130.713 177.889 130.816 178.814 130.464 179.904C130.337 179.991 130.301 180.022 130.228 179.923C129.989 179.319 129.787 178.845 129.586 178.371C129.57 178.087 129.555 177.804 129.516 177.416Z" fill="white"/>
<path d="M196.017 152.286C196.017 152.423 196.009 152.475 195.999 152.606C195.909 152.67 195.82 152.655 195.665 152.627C194.846 152.082 194.092 151.551 193.299 150.943C194.176 151.311 195.092 151.756 196.017 152.286Z" fill="white"/>
<path d="M49.7717 96.2444C50.8985 96.2292 51.9859 96.2696 53.1449 96.3929C52.1195 96.5159 51.0223 96.556 49.8589 96.5091C49.7726 96.3814 49.7525 96.3406 49.7717 96.2444Z" fill="white"/>
<path d="M88.1989 139.914C87.8736 141.129 86.9322 140.943 86.0038 140.709C86.3869 140.334 86.7949 140.105 87.2029 139.876C87.5031 139.869 87.8033 139.861 88.1989 139.914Z" fill="white"/>
<path d="M198.992 153.395C198.249 153.156 197.581 152.913 196.862 152.587C197.783 152.149 198.671 152.212 199.428 153.137C199.325 153.289 199.196 153.34 198.992 153.395Z" fill="white"/>
<path d="M96.8489 144.565C97.6729 144.742 98.497 144.92 99.3072 145.263C99.272 145.474 99.2508 145.519 99.2295 145.563C99.0097 145.55 98.7899 145.537 98.4439 145.453C97.8281 145.11 97.3385 144.837 96.8489 144.565Z" fill="white"/>
<path d="M92.3119 139.196C91.359 139.491 90.4061 139.785 89.4281 139.934C89.8105 139.551 90.218 139.313 90.6254 139.076C91.0781 139.043 91.5308 139.011 92.121 139.019C92.2764 139.106 92.2941 139.151 92.3119 139.196Z" fill="white"/>
<path d="M122.692 160.265C123.746 160.5 124.11 161.287 124.153 162.296C123.77 162.113 123.504 161.87 123.239 161.628C123.239 161.628 123.197 161.514 123.167 161.373C122.988 160.91 122.84 160.587 122.692 160.265Z" fill="white"/>
<path d="M94.9592 144.679C94.3128 144.429 93.7795 144.182 93.1958 143.863C94.2116 144.007 95.2778 144.222 96.4103 144.564C96.4572 144.735 96.4377 144.78 96.4183 144.825C95.9697 144.777 95.5211 144.729 94.9592 144.679Z" fill="white"/>
<path d="M136.688 175.725C136.31 174.796 136.349 173.969 137.356 173.34C137.48 173.528 137.512 173.73 137.461 174.085C137.146 174.733 136.917 175.229 136.688 175.725Z" fill="white"/>
<path d="M95.0558 138.348C94.7248 139.62 93.7469 139.367 92.7809 139.156C93.2569 138.781 93.7854 138.534 94.3139 138.287C94.5307 138.288 94.7476 138.288 95.0558 138.348Z" fill="white"/>
<path d="M101.935 136.754C101.658 137.917 100.819 137.801 99.9648 137.559C100.397 137.163 100.852 136.912 101.307 136.66C101.508 136.667 101.709 136.675 101.935 136.754Z" fill="white"/>
<path d="M163.763 180.716C163.652 180.543 163.6 180.277 163.505 179.94C163.478 179.724 163.494 179.578 163.579 179.307C163.812 178.736 163.975 178.29 164.138 177.845C164.178 177.82 164.217 177.796 164.319 177.803C164.195 178.764 164.008 179.694 163.763 180.716Z" fill="white"/>
<path d="M135.847 179.011C136.059 178.271 136.272 177.53 136.577 176.775C136.707 177.048 136.744 177.334 136.701 177.769C136.363 178.282 136.105 178.647 135.847 179.011Z" fill="white"/>
<path d="M91.5267 143.898C90.8895 143.641 90.358 143.383 89.7761 143.053C90.6177 143.184 91.5096 143.386 92.482 143.662C92.5498 143.779 92.5371 143.824 92.4979 143.932C92.1917 143.963 91.912 143.93 91.5267 143.898Z" fill="white"/>
<path d="M186.264 177.412C186.592 177.889 186.902 178.479 187.292 179.114C187.369 179.384 187.364 179.609 187.295 179.889C186.126 179.453 186.371 178.413 186.264 177.412Z" fill="white"/>
<path d="M137.458 172.568C137.171 171.786 137.076 171.065 138.152 170.686C138.286 170.809 138.324 170.932 138.285 171.201C137.957 171.754 137.707 172.161 137.458 172.568Z" fill="white"/>
<path d="M127.403 168.878C128.405 168.994 128.338 169.666 128.099 170.427C127.975 170.498 127.936 170.525 127.858 170.429C127.606 169.964 127.395 169.62 127.183 169.276C127.184 169.211 127.179 169.146 127.22 169.008C127.317 168.916 127.36 168.897 127.403 168.878Z" fill="white"/>
<path d="M128.948 173.023C128.647 172.68 128.416 172.27 128.103 171.82C128.021 171.65 128.021 171.52 128.072 171.308C129.285 171.357 129.105 172.18 128.948 173.023Z" fill="white"/>
<path d="M197.852 73.1524C197.522 72.6732 197.205 72.0855 196.811 71.4467C196.741 71.2646 196.749 71.1335 196.815 70.9227C197.204 71.5766 197.535 72.3102 197.852 73.1524Z" fill="white"/>
<path d="M131.317 183.293C131.014 182.866 130.778 182.37 130.461 181.83C130.379 181.653 130.38 181.52 130.442 181.309C131.51 181.581 131.533 182.366 131.317 183.293Z" fill="white"/>
<path d="M132.879 189.894C132.58 189.629 132.352 189.304 132.046 188.941C131.965 188.689 131.963 188.475 132.022 188.173C132.901 188.406 133.159 189.005 132.879 189.894Z" fill="white"/>
<path d="M84.1215 142.317C83.8514 141.822 82.4592 141.893 83.4446 140.842C83.537 140.812 83.6284 140.786 83.6609 140.82C83.9841 141.218 84.2749 141.58 84.5706 142.043C84.4497 142.2 84.3238 142.256 84.1215 142.317Z" fill="white"/>
<path d="M179.747 193.77C179.608 193.733 179.532 193.681 179.409 193.576C179.884 193.253 180.405 192.982 180.964 192.794C181.03 192.915 181.056 192.955 180.969 193.048C180.593 193.309 180.33 193.515 180.068 193.721C179.981 193.726 179.895 193.737 179.747 193.77Z" fill="white"/>
<path d="M211.927 144.221C211.678 144.644 211.434 145.01 211.109 145.404C210.447 144.689 211.037 144.307 211.58 143.864C211.709 143.858 211.759 143.874 211.882 143.915C211.947 144.016 211.94 144.09 211.927 144.221Z" fill="white"/>
<path d="M96.4908 138.416C96.8389 138.117 97.249 137.886 97.7017 137.575C97.8783 137.501 98.0124 137.506 98.2287 137.57C98.0024 138.483 97.3643 138.661 96.4908 138.416Z" fill="white"/>
<path d="M197.487 67.1059C197.367 67.7163 197.207 68.2715 196.97 68.8329C196.829 68.7363 196.767 68.6335 196.771 68.3858C196.997 67.856 197.156 67.4712 197.314 67.0864C197.358 67.0745 197.402 67.0625 197.487 67.1059Z" fill="white"/>
<path d="M180.378 171.298C180.393 171.342 180.408 171.386 180.42 171.5C179.804 171.365 179.192 171.16 178.587 170.863C178.798 170.737 179.002 170.703 179.35 170.749C179.789 170.985 180.083 171.141 180.378 171.298Z" fill="white"/>
<path d="M106.45 135.314C106.375 136.132 105.889 136.275 105.153 135.99C105.078 135.868 105.047 135.832 105.128 135.743C105.51 135.484 105.78 135.279 106.05 135.075C106.132 135.071 106.212 135.061 106.358 135.081C106.492 135.175 106.501 135.241 106.45 135.314Z" fill="white"/>
<path d="M104.287 135.979C104.085 136.923 103.447 137.075 102.572 136.814C102.503 136.751 102.448 136.632 102.581 136.595C103.075 136.339 103.436 136.12 103.796 135.901C103.932 135.907 104.069 135.912 104.287 135.979Z" fill="white"/>
<path d="M104.52 147.113C104.088 146.852 103.72 146.597 103.315 146.264C103.804 146.348 104.33 146.51 104.883 146.821C104.856 147.028 104.831 147.096 104.835 147.175C104.754 147.147 104.67 147.129 104.52 147.113Z" fill="white"/>
<path d="M170.461 171.648C170.723 171.338 171.084 171.082 171.481 170.748C171.667 170.674 171.817 170.677 172.003 170.746C171.814 171.552 171.352 171.901 170.461 171.648Z" fill="white"/>
<path d="M187.39 185.106C187.15 185.531 186.913 185.858 186.597 186.224C186.01 185.48 186.602 185.095 187.18 184.665C187.311 184.775 187.352 184.892 187.39 185.106Z" fill="white"/>
<path d="M207.571 65.1151C207.037 64.8579 206.533 64.5672 206.009 64.1899C206.332 64.1872 206.676 64.2713 207.101 64.5029C207.343 64.7722 207.503 64.8939 207.663 65.0156C207.663 65.0156 207.601 65.0817 207.571 65.1151Z" fill="white"/>
<path d="M211.802 138.266C211.464 137.928 211.186 137.51 211.06 137.072C211.431 137.299 211.65 137.544 211.869 137.789C211.867 137.921 211.864 138.054 211.802 138.266Z" fill="white"/>
<path d="M200.763 75.6352C200.768 75.7751 200.764 75.829 200.754 75.9638C200.656 76.0266 200.565 76.0085 200.408 75.9715C200.114 75.6917 199.888 75.4309 199.63 75.1027C199.983 75.2066 200.369 75.3779 200.763 75.6352Z" fill="white"/>
<path d="M58.2632 64.6567C58.589 64.5076 58.8521 64.394 59.2024 64.2911C58.9969 64.6293 58.7042 64.9568 58.3286 65.3118C58.1829 65.191 58.1201 65.0426 58.0654 64.8272C58.1158 64.7376 58.1582 64.7149 58.2632 64.6567Z" fill="white"/>
<path d="M106.948 135.287C107.14 134.99 107.423 134.743 107.731 134.417C107.874 134.316 107.993 134.296 108.197 134.245C108.291 134.265 108.3 134.316 108.304 134.443C107.88 134.792 107.46 135.065 106.948 135.287Z" fill="white"/>
<path d="M106.266 147.816C105.9 147.563 105.625 147.32 105.309 147.009C105.736 147.102 106.203 147.264 106.691 147.525C106.715 147.677 106.718 147.73 106.712 147.861C106.588 147.902 106.472 147.865 106.266 147.816Z" fill="white"/>
<path d="M186.225 187.269C186.188 187.576 186.107 187.819 186.014 188.162C186.001 188.261 185.882 188.252 185.861 188.197C185.437 187.57 185.475 187.466 186.225 187.269Z" fill="white"/>
<path d="M206.836 74.9797C206.729 75.264 206.532 75.506 206.313 75.8245C206.173 75.9259 206.056 75.9508 205.854 75.9989C205.753 75.9777 205.739 75.9334 205.707 75.822C206.041 75.4824 206.394 75.2099 206.836 74.9797Z" fill="white"/>
<path d="M133.635 191.334C133.18 191.829 132.902 191.763 132.854 191.04C133.034 190.966 133.185 190.97 133.409 190.994C133.536 191.099 133.588 191.185 133.635 191.334Z" fill="white"/>
<path d="M170.782 193.534C170.521 193.382 170.305 193.243 169.991 193.111C169.876 193.076 169.859 193.033 169.884 192.934C170.532 192.365 170.77 192.746 170.914 193.39C170.891 193.483 170.825 193.547 170.782 193.534Z" fill="white"/>
<path d="M164.33 177.128C164.555 176.8 164.799 176.555 165.131 176.298C165.029 176.641 164.841 176.997 164.56 177.345C164.428 177.296 164.389 177.254 164.33 177.128Z" fill="white"/>
<path d="M108.942 148.819C108.675 148.7 108.499 148.601 108.289 148.434C109.564 148.971 110.874 149.577 112.195 150.285C111.148 149.871 110.09 149.356 108.942 148.819Z" fill="white"/>
<path d="M101.837 145.875C101.268 145.804 100.751 145.672 100.176 145.461C100.708 145.527 101.299 145.67 101.837 145.875Z" fill="white"/>
<path d="M138.756 168.986C138.689 169.386 138.556 169.737 138.343 170.136C138.032 169.642 137.746 169.08 138.756 168.986Z" fill="white"/>
<path d="M108.242 148.266C107.897 148.198 107.549 148.033 107.159 147.797C107.49 147.874 107.864 148.022 108.242 148.266Z" fill="white"/>
<path d="M208.398 149.46C207.743 150.157 206.995 150.834 206.155 151.519C206.811 150.832 207.558 150.136 208.398 149.46Z" fill="white"/>
<path d="M209.954 147.602C209.679 148.14 209.309 148.672 208.848 149.21C209.125 148.675 209.491 148.136 209.954 147.602Z" fill="white"/>
<path d="M205.949 151.514C205.582 151.791 205.11 152.051 204.545 152.3C204.916 152.025 205.38 151.761 205.949 151.514Z" fill="white"/>
<path d="M209.998 134.708C210.255 135.017 210.499 135.429 210.749 135.934C209.704 136.124 210.105 135.302 209.998 134.708Z" fill="white"/>
<path d="M210.739 146.438C210.744 146.664 210.712 146.815 210.638 147.035C210.487 147.185 210.377 147.266 210.205 147.372C210.328 147.052 210.515 146.707 210.739 146.438Z" fill="white"/>
<path d="M192.209 149.911C191.935 149.813 191.69 149.621 191.44 149.345C191.703 149.447 191.971 149.631 192.209 149.911Z" fill="white"/>
<path d="M208.479 133.066C208.745 133.183 208.991 133.395 209.245 133.691C208.988 133.571 208.724 133.366 208.479 133.066Z" fill="white"/>
<path d="M193.065 150.668C192.796 150.584 192.531 150.403 192.249 150.14C192.51 150.23 192.789 150.4 193.065 150.668Z" fill="white"/>
<path d="M207.666 132.285C207.932 132.386 208.189 132.584 208.46 132.864C208.202 132.758 207.93 132.57 207.666 132.285Z" fill="white"/>
<path d="M191.421 149.12C191.154 148.996 190.918 148.778 190.68 148.477C190.936 148.604 191.195 148.816 191.421 149.12Z" fill="white"/>
<path d="M206.844 131.533C207.037 131.594 207.229 131.755 207.451 131.988C207.268 131.917 207.055 131.775 206.844 131.533Z" fill="white"/>
<path d="M209.33 134.064C209.573 134.131 209.774 134.289 209.99 134.524C209.767 134.452 209.528 134.303 209.33 134.064Z" fill="white"/>
<path d="M190.607 148.096C190.423 148.069 190.281 147.948 190.116 147.761C190.278 147.797 190.463 147.899 190.607 148.096Z" fill="white"/>
<path d="M184.827 175.191C185.342 175.769 185.816 176.437 186.285 177.199C185.782 176.622 185.284 175.952 184.827 175.191Z" fill="white"/>
<path d="M169.123 172.034C169.358 171.906 169.594 171.778 169.879 171.691C169.695 171.967 169.461 172.201 169.165 172.3C169.11 172.122 169.116 172.078 169.123 172.034Z" fill="white"/>
<path d="M185.393 188.751C185.302 189.012 185.142 189.239 184.899 189.487C184.985 189.244 185.155 188.981 185.393 188.751Z" fill="white"/>
<path d="M183.177 173.391C183.433 173.495 183.682 173.693 183.945 173.971C183.697 173.863 183.433 173.673 183.177 173.391Z" fill="white"/>
<path d="M183.979 174.179C184.235 174.297 184.477 174.508 184.726 174.801C184.478 174.68 184.222 174.476 183.979 174.179Z" fill="white"/>
<path d="M182.477 172.812C182.647 172.824 182.778 172.921 182.93 173.078C182.78 173.057 182.608 172.978 182.477 172.812Z" fill="white"/>
<path d="M167.034 174.049C167.066 173.871 167.192 173.716 167.397 173.557C167.36 173.726 167.244 173.9 167.034 174.049Z" fill="white"/>
<path d="M166.255 174.86C166.279 174.683 166.398 174.518 166.597 174.345C166.569 174.515 166.459 174.693 166.255 174.86Z" fill="white"/>
<path d="M52.4522 112.113C52.1834 112.22 51.8272 112.266 51.4248 112.243C51.7074 112.134 52.0361 112.093 52.4522 112.113Z" fill="white"/>
<path d="M132.797 92.5294C132.885 92.2512 132.968 92.0876 133.052 91.924C133.118 91.9406 133.185 91.9573 133.251 91.9739C133.251 92.4989 133.251 93.0238 133.251 93.5487C133.145 93.5648 133.039 93.5808 132.933 93.5969C132.886 93.2793 132.84 92.9617 132.797 92.5294Z" fill="white"/>
<path d="M205.215 75.7543C204.065 76.6798 202.75 76.6318 201.346 75.9189C202.556 75.7923 203.826 75.747 205.215 75.7543Z" fill="white"/>
<path d="M209.366 68.8471C209.473 69.5475 209.509 70.3285 209.474 71.1742C209.366 70.4684 209.331 69.6981 209.366 68.8471Z" fill="white"/>
<path d="M208.817 72.7017C208.658 73.1646 208.407 73.6301 208.066 74.1037C208.226 73.6427 208.476 73.1735 208.817 72.7017Z" fill="white"/>
<path d="M199.367 74.7923C199.112 74.6885 198.862 74.4914 198.598 74.2132C198.847 74.321 199.109 74.51 199.367 74.7923Z" fill="white"/>
<path d="M197.935 66.5237C198.033 66.2574 198.196 66.0318 198.446 65.7953C198.355 66.0444 198.177 66.3045 197.935 66.5237Z" fill="white"/>
<path d="M199.446 64.9723C199.562 64.7373 199.758 64.526 200.044 64.3128C199.932 64.5392 199.729 64.7675 199.446 64.9723Z" fill="white"/>
<path d="M198.667 65.7726C198.767 65.5061 198.959 65.2612 199.232 65.007C199.128 65.2633 198.944 65.5287 198.667 65.7726Z" fill="white"/>
<path d="M198.566 74.0059C198.405 73.9542 198.259 73.8134 198.115 73.5912C198.271 73.6455 198.426 73.781 198.566 74.0059Z" fill="white"/>
<path d="M207.6 74.3867C207.572 74.5726 207.453 74.7381 207.25 74.8997C207.281 74.7193 207.396 74.5428 207.6 74.3867Z" fill="white"/>
<path d="M60.3109 64.1339C61.3985 63.1462 62.6461 63.1252 63.9799 63.937C62.8194 64.0814 61.6176 64.1372 60.3109 64.1339Z" fill="white"/>
<path d="M56.1979 70.7993C56.0735 70.2074 56.0262 69.5486 56.0603 68.8254C56.1862 69.4182 56.2306 70.0753 56.1979 70.7993Z" fill="white"/>
<path d="M58.6028 74.8502C58.0754 74.5464 57.5827 74.1513 57.0955 73.6635C57.6131 73.9669 58.1253 74.3629 58.6028 74.8502Z" fill="white"/>
<path d="M59.4979 75.5586C59.2376 75.4841 58.9716 75.3136 58.681 75.0665C58.935 75.1475 59.2136 75.305 59.4979 75.5586Z" fill="white"/>
<path d="M66.175 65.1227C66.4366 65.2311 66.6965 65.4343 66.9688 65.7225C66.712 65.6109 66.4426 65.4142 66.175 65.1227Z" fill="white"/>
<path d="M56.9946 73.0295C56.8095 73.0017 56.6782 72.8841 56.5286 72.7017C56.6897 72.7379 56.869 72.8387 56.9946 73.0295Z" fill="white"/>
<path d="M67.0591 66.099C67.2353 66.1418 67.3699 66.2759 67.5219 66.4804C67.3654 66.4306 67.1915 66.3104 67.0591 66.099Z" fill="white"/>
<path d="M65.4093 64.5587C65.5922 64.5689 65.7524 64.6761 65.9459 64.8489C65.7817 64.8282 65.5841 64.7419 65.4093 64.5587Z" fill="white"/>
<path d="M56.4346 67.4066C56.4321 67.2285 56.5245 67.0423 56.6981 66.8367C56.696 67.011 56.6128 67.2047 56.4346 67.4066Z" fill="white"/>
<path d="M135.614 61.3298C137.874 61.88 139.806 62.8623 141.328 64.4614C143.6 66.8497 144.76 69.7011 144.675 73.0663C144.576 76.9469 142.988 80.013 139.93 82.339C138.051 83.7672 135.926 84.4861 133.55 84.6034C128.315 84.8618 124.045 82.1843 122.064 77.657C119.611 72.0468 121.422 66.2203 126.636 62.7847C129.236 61.0708 132.322 60.3925 135.614 61.3298Z" fill="white"/>
<path d="M81.2268 104.778C78.3455 101.962 77.1311 98.5491 77.6697 94.7321C78.1711 91.1786 79.9928 88.3075 83.112 86.2558C86.0006 84.3559 89.1509 84.1703 92.2804 84.7996C95.4369 85.4343 97.8666 87.3822 99.5909 90.2256C101.262 92.9806 101.602 95.9618 100.983 98.9358C100.311 102.166 98.4382 104.8 95.5002 106.511C93.2591 107.815 90.8125 108.463 88.2411 108.116C85.619 107.762 83.1877 106.831 81.2268 104.778Z" fill="white"/>
<path d="M187.148 93.9269C187.174 95.0109 187.252 95.979 187.204 96.9407C186.992 101.17 184.951 104.349 181.407 106.539C179.157 107.929 176.601 108.515 174.007 108.078C170.371 107.465 167.339 105.75 165.351 102.46C163.784 99.8664 163.295 97.0262 163.821 94.1555C164.434 90.8107 166.254 88.1312 169.215 86.2297C172.07 84.3966 175.236 84.2312 178.284 84.8274C181.397 85.436 183.987 87.333 185.564 90.2546C186.178 91.3917 186.622 92.6209 187.148 93.9269Z" fill="white"/>
<path d="M170.403 212.806C172.963 213.704 174.809 215.145 175.319 217.885C175.488 218.796 176.109 219.746 175.953 220.571C175.474 223.114 174.72 225.615 171.936 226.686C170.709 227.158 169.484 227.794 168.209 227.948C165.732 228.248 162.655 226.168 161.417 223.991C160.258 221.955 160.361 219.78 160.819 217.776C161.129 216.42 162.424 215.213 163.466 214.118C165.084 212.419 167.21 212.372 169.375 212.71C169.677 212.757 169.985 212.769 170.403 212.806Z" fill="white"/>
<path d="M219.498 175.422C219.182 178.333 217.825 180.283 215.315 181.708C213.354 182.822 211.333 182.618 209.522 182.22C207.435 181.76 205.766 180.271 204.825 178.055C204.325 176.876 204.136 175.771 204.136 174.557C204.136 172.355 205.273 170.802 206.746 169.262C207.943 168.009 209.48 167.712 210.908 167.138C211.909 166.735 212.96 167.353 214.003 167.602C215.771 168.025 216.85 169.118 217.9 170.33C219.115 171.732 219.754 173.39 219.498 175.422Z" fill="white"/>
<path d="M204.204 106.48C203.617 103.018 204.251 100.08 207.059 97.8515C210.35 95.2408 216.546 95.7592 218.774 100.184C221.37 105.338 219.151 110.396 213.901 111.921C210.304 112.966 206.248 111.193 204.73 107.513C204.598 107.192 204.405 106.895 204.204 106.48Z" fill="white"/>
<path d="M102.983 65.8336C101.097 66.8081 99.3529 67.9865 97.049 67.8875C93.9408 67.754 91.6797 66.2255 90.3056 63.6655C87.868 59.1242 89.7785 54.4108 94.2805 52.4731C96.9366 51.3299 99.826 51.6572 102.315 53.6235C105.976 56.5165 106.207 61.9494 102.962 65.7102C102.957 65.8035 103.012 65.8605 102.983 65.8336Z" fill="white"/>
<path d="M201.861 216.401C199.253 216.243 197.113 214.014 196.979 211.544C196.871 209.55 197.072 207.707 198.615 206.217C200.159 204.727 203.746 204.548 205.603 205.442C207.404 206.309 208.16 207.594 208.542 209.399C208.925 211.21 208.661 212.883 207.619 214.35C206.819 215.478 205.706 216.311 204.217 216.377C203.474 216.41 202.728 216.398 201.861 216.401Z" fill="white"/>
<path d="M126.789 43.0438C126.532 42.2975 126.258 41.6548 126.132 40.9843C126.005 40.3122 125.801 39.5278 126.023 38.9407C126.65 37.2829 127.231 35.4324 129.127 34.7966C130.358 34.3843 131.71 34.3039 133.018 34.1643C135.194 33.932 136.26 35.5164 137.267 37.0129C137.716 37.6803 137.91 38.5596 138.072 39.3721C138.65 42.2619 136.597 43.8297 134.784 45.398C134.304 45.8135 133.275 45.5856 132.501 45.6729C130.32 45.919 128.486 45.3954 127.286 43.3908C127.209 43.2622 126.99 43.2185 126.789 43.0438Z" fill="white"/>
<path d="M25.9664 141.803C25.9047 140.778 25.7671 139.818 25.9354 138.914C26.0747 138.168 26.5324 137.463 26.9241 136.784C27.8812 135.122 29.4029 134.462 31.2655 134.328C35.6782 134.009 38.6999 137.977 37.5909 142.143C36.9771 144.45 34.5036 145.966 32.091 146.11C29.8184 146.247 27.9998 145.606 26.7813 143.631C26.4528 143.098 26.2718 142.475 25.9664 141.803Z" fill="white"/>
<path d="M57.1395 168.915C58.5117 170.371 59.4596 172.105 59.6997 174.038C60.0199 176.616 59.1815 179.001 57.2611 180.773C53.0559 184.655 47.1 183.426 44.5417 178.676C42.1769 174.285 44.586 169.067 49.0238 167.49C52.0382 166.418 54.5371 167.082 57.0161 168.929C57.1081 168.94 57.1666 168.885 57.1395 168.915Z" fill="white"/>
<path d="M55.5326 209.347C56.0008 208.4 56.3597 207.499 56.9148 206.742C59.6214 203.049 65.702 203.824 67.6957 208.366C69.0557 211.463 66.7323 215.628 63.5561 216.622C58.9875 218.051 54.6101 213.772 55.5326 209.347Z" fill="white"/>
</svg>
