<svg width="126" height="126" viewBox="0 0 126 126" fill="none" xmlns="http://www.w3.org/2000/svg">
<rect width="126" height="126" rx="63" fill="#F5F5F5"/>
<path d="M115 63C115 73.3835 111.921 83.5339 106.152 92.1674C100.383 100.801 92.184 107.53 82.5909 111.504C72.9978 115.477 62.4418 116.517 52.2578 114.491C42.0738 112.466 32.7192 107.465 25.3769 100.123C18.0346 92.7808 13.0345 83.4262 11.0088 73.2422C8.98305 63.0582 10.0227 52.5022 13.9963 42.9091C17.9699 33.316 24.699 25.1166 33.3326 19.3478C41.9661 13.5791 52.1165 10.5 62.5 10.5L62.5 63H115Z" fill="#0E1013"/>
<circle cx="63" cy="64" r="38" fill="#F5F5F5"/>
<circle cx="63" cy="65" r="25" fill="#0E1013"/>
</svg>
